<?xml version="1.0" encoding="UTF-8" standalone="no"?>
<!DOCTYPE svg PUBLIC "-//W3C//DTD SVG 1.1//EN"
 "http://www.w3.org/Graphics/SVG/1.1/DTD/svg11.dtd">
<!-- Generated by graphviz version 2.43.0 (0)
 -->
<!-- Title: %3 Pages: 1 -->
<svg width="1099pt" height="277pt"
 viewBox="0.00 0.00 1099.42 277.00" xmlns="http://www.w3.org/2000/svg" xmlns:xlink="http://www.w3.org/1999/xlink">
<g id="graph0" class="graph" transform="scale(1 1) rotate(0) translate(4 273)">
<title>%3</title>
<polygon fill="white" stroke="transparent" points="-4,4 -4,-273 1095.42,-273 1095.42,4 -4,4"/>
<!-- applog_file_raw -->
<g id="node1" class="node">
<title>applog_file_raw</title>
<polygon fill="none" stroke="black" points="363.65,-269 227.03,-269 178.37,-233 412.31,-233 363.65,-269"/>
<text text-anchor="middle" x="295.34" y="-247.3" font-family="Times,serif" font-size="14.00">applog_file_raw</text>
</g>
<!-- applog_file -->
<g id="node5" class="node">
<title>applog_file</title>
<polygon fill="none" stroke="black" points="295.34,-196 209.88,-178 295.34,-160 380.8,-178 295.34,-196"/>
<text text-anchor="middle" x="295.34" y="-174.3" font-family="Times,serif" font-size="14.00">applog_file</text>
</g>
<!-- applog_file_raw&#45;&gt;applog_file -->
<g id="edge1" class="edge">
<title>applog_file_raw&#45;&gt;applog_file</title>
<path fill="none" stroke="black" d="M295.34,-232.81C295.34,-224.79 295.34,-215.05 295.34,-206.07"/>
<polygon fill="black" stroke="black" points="298.84,-206.03 295.34,-196.03 291.84,-206.03 298.84,-206.03"/>
</g>
<!-- host_metrics -->
<g id="node2" class="node">
<title>host_metrics</title>
<polygon fill="none" stroke="black" points="610.18,-269 494.5,-269 453.3,-233 651.38,-233 610.18,-269"/>
<text text-anchor="middle" x="552.34" y="-247.3" font-family="Times,serif" font-size="14.00">host_metrics</text>
</g>
<!-- for_mimir -->
<g id="node7" class="node">
<title>for_mimir</title>
<polygon fill="none" stroke="black" points="575.34,-196 496.25,-178 575.34,-160 654.44,-178 575.34,-196"/>
<text text-anchor="middle" x="575.34" y="-174.3" font-family="Times,serif" font-size="14.00">for_mimir</text>
</g>
<!-- host_metrics&#45;&gt;for_mimir -->
<g id="edge3" class="edge">
<title>host_metrics&#45;&gt;for_mimir</title>
<path fill="none" stroke="black" d="M557.91,-232.81C560.64,-224.37 563.99,-214.03 567.02,-204.68"/>
<polygon fill="black" stroke="black" points="570.39,-205.65 570.14,-195.06 563.73,-203.49 570.39,-205.65"/>
</g>
<!-- vector_logs -->
<g id="node3" class="node">
<title>vector_logs</title>
<polygon fill="none" stroke="black" points="1053.99,-269 948.69,-269 911.19,-233 1091.5,-233 1053.99,-269"/>
<text text-anchor="middle" x="1001.34" y="-247.3" font-family="Times,serif" font-size="14.00">vector_logs</text>
</g>
<!-- loki -->
<g id="node9" class="node">
<title>loki</title>
<polygon fill="none" stroke="black" points="978.73,-160 1023.95,-160 1040.05,-196 962.63,-196 978.73,-160"/>
<text text-anchor="middle" x="1001.34" y="-174.3" font-family="Times,serif" font-size="14.00">loki</text>
</g>
<!-- vector_logs&#45;&gt;loki -->
<g id="edge7" class="edge">
<title>vector_logs&#45;&gt;loki</title>
<path fill="none" stroke="black" d="M1001.34,-232.81C1001.34,-224.79 1001.34,-215.05 1001.34,-206.07"/>
<polygon fill="black" stroke="black" points="1004.84,-206.03 1001.34,-196.03 997.84,-206.03 1004.84,-206.03"/>
</g>
<!-- vector_metrics -->
<g id="node4" class="node">
<title>vector_metrics</title>
<polygon fill="none" stroke="black" points="846.91,-269 715.77,-269 669.07,-233 893.62,-233 846.91,-269"/>
<text text-anchor="middle" x="781.34" y="-247.3" font-family="Times,serif" font-size="14.00">vector_metrics</text>
</g>
<!-- vector_metrics&#45;&gt;for_mimir -->
<g id="edge4" class="edge">
<title>vector_metrics&#45;&gt;for_mimir</title>
<path fill="none" stroke="black" d="M732,-232.99C696.19,-220.65 648.37,-204.17 615.02,-192.67"/>
<polygon fill="black" stroke="black" points="615.76,-189.23 605.16,-189.28 613.47,-195.85 615.76,-189.23"/>
</g>
<!-- applog_file_2_metric -->
<g id="node6" class="node">
<title>applog_file_2_metric</title>
<polygon fill="none" stroke="black" points="295.34,-109 146.53,-91 295.34,-73 444.15,-91 295.34,-109"/>
<text text-anchor="middle" x="295.34" y="-87.3" font-family="Times,serif" font-size="14.00">applog_file_2_metric</text>
</g>
<!-- applog_file&#45;&gt;applog_file_2_metric -->
<g id="edge2" class="edge">
<title>applog_file&#45;&gt;applog_file_2_metric</title>
<path fill="none" stroke="black" d="M295.34,-159.8C295.34,-148.16 295.34,-132.55 295.34,-119.24"/>
<polygon fill="black" stroke="black" points="298.84,-119.18 295.34,-109.18 291.84,-119.18 298.84,-119.18"/>
</g>
<!-- dlq_loki -->
<g id="node8" class="node">
<title>dlq_loki</title>
<polygon fill="none" stroke="black" points="489.37,-73 565.31,-73 592.36,-109 462.32,-109 489.37,-73"/>
<text text-anchor="middle" x="527.34" y="-87.3" font-family="Times,serif" font-size="14.00">dlq_loki</text>
</g>
<!-- applog_file&#45;&gt;dlq_loki -->
<g id="edge5" class="edge">
<title>applog_file&#45;&gt;dlq_loki</title>
<path fill="none" stroke="black" d="M325.2,-166.06C361.99,-152.58 425.26,-129.4 471.24,-112.56"/>
<polygon fill="black" stroke="black" points="472.58,-115.79 480.77,-109.06 470.18,-109.22 472.58,-115.79"/>
<text text-anchor="middle" x="455.34" y="-130.8" font-family="Times,serif" font-size="14.00">dropped</text>
</g>
<!-- console -->
<g id="node11" class="node">
<title>console</title>
<polygon fill="none" stroke="black" points="26.86,-73 101.82,-73 128.52,-109 0.16,-109 26.86,-73"/>
<text text-anchor="middle" x="64.34" y="-87.3" font-family="Times,serif" font-size="14.00">console</text>
</g>
<!-- applog_file&#45;&gt;console -->
<g id="edge10" class="edge">
<title>applog_file&#45;&gt;console</title>
<path fill="none" stroke="black" d="M265.61,-166.06C228.98,-152.58 165.98,-129.4 120.2,-112.56"/>
<polygon fill="black" stroke="black" points="121.31,-109.23 110.71,-109.06 118.89,-115.8 121.31,-109.23"/>
</g>
<!-- mimir -->
<g id="node10" class="node">
<title>mimir</title>
<polygon fill="none" stroke="black" points="425.53,0 489.15,0 511.8,-36 402.88,-36 425.53,0"/>
<text text-anchor="middle" x="457.34" y="-14.3" font-family="Times,serif" font-size="14.00">mimir</text>
</g>
<!-- applog_file_2_metric&#45;&gt;mimir -->
<g id="edge9" class="edge">
<title>applog_file_2_metric&#45;&gt;mimir</title>
<path fill="none" stroke="black" d="M325.81,-76.65C349.26,-66.37 382.12,-51.97 409.12,-40.13"/>
<polygon fill="black" stroke="black" points="410.65,-43.28 418.41,-36.06 407.84,-36.87 410.65,-43.28"/>
</g>
<!-- for_mimir&#45;&gt;dlq_loki -->
<g id="edge6" class="edge">
<title>for_mimir&#45;&gt;dlq_loki</title>
<path fill="none" stroke="black" d="M561.77,-162.82C556.46,-156.74 550.63,-149.36 546.34,-142 542.18,-134.86 538.62,-126.64 535.74,-118.96"/>
<polygon fill="black" stroke="black" points="538.96,-117.58 532.35,-109.3 532.36,-119.89 538.96,-117.58"/>
<text text-anchor="middle" x="576.34" y="-130.8" font-family="Times,serif" font-size="14.00">dropped</text>
</g>
<!-- for_mimir&#45;&gt;mimir -->
<g id="edge8" class="edge">
<title>for_mimir&#45;&gt;mimir</title>
<path fill="none" stroke="black" d="M591.66,-163.32C597.45,-157.43 603.29,-150.05 606.34,-142 612.67,-125.3 616.95,-93.44 601.34,-73 580.74,-46.02 545.09,-32.52 514.41,-25.77"/>
<polygon fill="black" stroke="black" points="514.72,-22.26 504.23,-23.72 513.35,-29.12 514.72,-22.26"/>
</g>
</g>
</svg>
